# xmcd
#
# Track frame offsets:
#	150
#	10625
#	23845
#	36450
#	50040
#	61850
#	73820
#	83205
#	93275
#	106920
#	122105
#	135295
#	152820
#	167770
#	178685
#	190035
#	200545
#	213330
#	225490
#	241020
#	251670
#	264835
#	277230
#	288610
#	299220
#
# Disc length: 4100 seconds
#
# Revision: 1
# Processed by: cddbd v1.5.1PL2 Copyright (c) Steve Scherf et al.
# Submitted via: audiograbber 1.83.01
#
DISCID=6d100219
DTITLE=Various Artist - 100 No. 1 Country Hits
DYEAR=1900
DGENRE=Country
TTITLE0=Faron Young - Hello Walls
TTITLE1=Ray Price - City Lights
TTITLE2=Charlie Rich - Behind Closed Doors
TTITLE3=Mel McDaniel - Baby Got Her Blue Jeans On
TTITLE4=Lynn Anderson - You`re My Man
TTITLE5=Jack Greene - All The Time
TTITLE6=Jimmy Dean - The First Thing Every Morning
TTITLE7=Johnny Rodriguez - Ridin` My Thumb To Mexico
TTITLE8=Stonewall Jackson - BJ The DJ
TTITLE9=Lee Greenwood - Going, Going, Gone
TTITLE10=Margo Smith - Don`t Break The Heart That Loves You
TTITLE11=T Graham Brown - Don`t Go To Strangers
TTITLE12=Don Gibson - Woman
TTITLE13=Charlie Rich - There Won`t Be Anymore
TTITLE14=Faron Young - Country Girl
TTITLE15=David Houston - Have A Little Faith
TTITLE16=Carl Smith - Let Old Mother Nature Have Her Way
TTITLE17=Donna Fargo - Funny Faced
TTITLE18=Carl Smith - Country Bumpkin
TTITLE19=Hank Thompson - Wake Up Irene
TTITLE20=Carl and Pearl Butler - Don`t Let Me Cross Over
TTITLE21=Freddy Fender - Wasted Days And Wasted Nights
TTITLE22=Ernest Ashworth - Talk Back Trembling Lips
TTITLE23=Hank Locklin - Let Me Be The One
TTITLE24=Don Gibson - Blue, Blue Day
EXTD=
EXTT0=
EXTT1=
EXTT2=
EXTT3=
EXTT4=
EXTT5=
EXTT6=
EXTT7=
EXTT8=
EXTT9=
EXTT10=
EXTT11=
EXTT12=
EXTT13=
EXTT14=
EXTT15=
EXTT16=
EXTT17=
EXTT18=
EXTT19=
EXTT20=
EXTT21=
EXTT22=
EXTT23=
EXTT24=
PLAYORDER=
